cyclingleg_states
version=1
nRows=5
nColumns=55
inDegrees=yes

# SIMM Motion File Header:
name cyclingleg_states
datacolumns 55
datarows 5
otherdata 1
range 0.30710885 0.30808183
endheader
time	/jointset/bb/crank_angle/value	/jointset/bb/crank_angle/speed	/jointset/spindle/pedal_angle_r/value	/jointset/spindle/pedal_angle_r/speed	/jointset/ground_pelvis/pelvis_tilt/value	/jointset/ground_pelvis/pelvis_tilt/speed	/jointset/ground_pelvis/pelvis_list/value	/jointset/ground_pelvis/pelvis_list/speed	/jointset/ground_pelvis/pelvis_rotation/value	/jointset/ground_pelvis/pelvis_rotation/speed	/jointset/ground_pelvis/pelvis_tx/value	/jointset/ground_pelvis/pelvis_tx/speed	/jointset/ground_pelvis/pelvis_ty/value	/jointset/ground_pelvis/pelvis_ty/speed	/jointset/ground_pelvis/pelvis_tz/value	/jointset/ground_pelvis/pelvis_tz/speed	/jointset/hip_r/hip_angle_r/value	/jointset/hip_r/hip_angle_r/speed	/jointset/hip_r/hip_adduction_r/value	/jointset/hip_r/hip_adduction_r/speed	/jointset/hip_r/hip_rotation_r/value	/jointset/hip_r/hip_rotation_r/speed	/jointset/knee_r/knee_angle_r/value	/jointset/knee_r/knee_angle_r/speed	/jointset/knee_r/tib_tx_r/value	/jointset/knee_r/tib_tx_r/speed	/jointset/knee_r/tib_ty_r/value	/jointset/knee_r/tib_ty_r/speed	/jointset/tib_pat_r/pat_angle_r/value	/jointset/tib_pat_r/pat_angle_r/speed	/jointset/tib_pat_r/pat_tx_r/value	/jointset/tib_pat_r/pat_tx_r/speed	/jointset/tib_pat_r/pat_ty_r/value	/jointset/tib_pat_r/pat_ty_r/speed	/jointset/ankle_r/ankle_angle_r/value	/jointset/ankle_r/ankle_angle_r/speed	/jointset/subtalar_r/subtalar_angle_r/value	/jointset/subtalar_r/subtalar_angle_r/speed	/jointset/mtp_r/mtp_angle_r/value	/jointset/mtp_r/mtp_angle_r/speed	/forceset/bifemlh_r/activation	/forceset/bifemlh_r/fiber_length	/forceset/bifemsh_r/activation	/forceset/bifemsh_r/fiber_length	/forceset/glut_max2_r/activation	/forceset/glut_max2_r/fiber_length	/forceset/vas_int_r/activation	/forceset/vas_int_r/fiber_length	/forceset/gastroc_r/activation	/forceset/gastroc_r/fiber_length	/forceset/soleus_r/activation	/forceset/soleus_r/fiber_length	/forceset/tib_ant_r/activation	/forceset/tib_ant_r/fiber_length
      0.30710885	   -345.79332194	  -1847.78129280	    290.86393259	   3245.24186883	     -0.00000000	      0.00000000	     -0.00000000	     -0.00000000	      0.00000000	      0.00000000	     -0.10000000	     -0.00000000	     -0.05000000	     -0.00000000	     -0.19627148	      1.92986412	    -23.26031818	    281.52297885	      3.66346394	    224.16135470	    -22.01809734	    102.83648730	    112.55720018	     94.94299799	     -0.00617570	      0.00035359	     -0.46457184	     -0.00322924	   -220.21160109	   -189.01318735	      0.05573670	      0.00000074	     -0.02550852	     -0.00000026	   -144.22594852	   1043.30581500	      0.00000000	     -0.00000000	     -0.00000000	     -0.00000000	     -0.01409815	      0.09908773	     -0.01409815	      0.17538972	     -0.01409815	      0.05747124	     -0.01409815	      0.09451195	     -0.01409815	      0.09716759	     -0.01409815	      0.04951953	     -0.01409815	      0.13722631
      0.30735210	   -346.24275949	  -1847.55191192	    291.65364164	   3247.82202613	     -0.00000000	      0.00000000	     -0.00000000	     -0.00000000	      0.00000000	      0.00000000	     -0.10000000	     -0.00000000	     -0.05000000	     -0.00000000	     -0.19580274	      1.92417056	    -23.19181598	    281.70712827	      3.71777134	    222.35501796	    -21.99290451	    104.30062738	    112.57925140	     86.36151840	     -0.00617562	      0.00032072	     -0.46457259	     -0.00293692	   -220.25550081	   -171.92911750	      0.05573670	      0.00000068	     -0.02550852	     -0.00000024	   -143.97087897	   1053.88994800	      0.00000000	     -0.00000000	     -0.00000000	     -0.00000000	     -0.01412946	      0.09900741	     -0.01412946	      0.17536956	     -0.01412946	      0.05755344	     -0.01412946	      0.09453549	     -0.01412946	      0.09713017	     -0.01412946	      0.04951093	     -0.01412946	      0.13738980
      0.30759534	   -346.69213778	  -1847.29425429	    292.44395413	   3250.20337008	     -0.00000000	      0.00000000	     -0.00000000	     -0.00000000	      0.00000000	      0.00000000	     -0.10000000	     -0.00000000	     -0.05000000	     -0.00000000	     -0.19533539	      1.91838459	    -23.12327235	    281.86392145	      3.77163466	    220.51006369	    -21.96735684	    105.75393804	    112.59921271	     77.75965070	     -0.00617555	      0.00028804	     -0.46457327	     -0.00264403	   -220.29523992	   -154.80445885	      0.05573670	      0.00000061	     -0.02550852	     -0.00000021	   -143.71325020	   1064.34760882	      0.00000000	     -0.00000000	     -0.00000000	     -0.00000000	     -0.01416078	      0.09892709	     -0.01416078	      0.17535069	     -0.01416078	      0.05766270	     -0.01416078	      0.09455734	     -0.01416078	      0.09709290	     -0.01416078	      0.04950233	     -0.01416078	      0.13755451
      0.30783859	   -347.14144981	  -1847.00628364	    293.23482145	   3252.38302586	     -0.00000000	      0.00000000	     -0.00000000	     -0.00000000	      0.00000000	      0.00000000	     -0.10000000	     -0.00000000	     -0.05000000	     -0.00000000	     -0.19486947	      1.91250700	    -23.05469383	    281.99385440	      3.82504454	    218.62683621	    -21.94145704	    107.19588157	    112.61707932	     69.13898885	     -0.00617548	      0.00025552	     -0.46457388	     -0.00235062	   -220.33080890	   -137.64238470	      0.05573670	      0.00000054	     -0.02550852	     -0.00000019	   -143.45309332	   1074.67610077	      0.00000000	     -0.00000000	     -0.00000000	     -0.00000000	     -0.01419210	      0.09884676	     -0.01419210	      0.17533313	     -0.01419210	      0.05774541	     -0.01419210	      0.09457753	     -0.01419210	      0.09705580	     -0.01419210	      0.04949372	     -0.01419210	      0.13772041
      0.30808183	   -347.59068787	  -1846.68618535	    294.02619412	   3254.35840414	     -0.00000000	      0.00000000	     -0.00000000	     -0.00000000	      0.00000000	      0.00000000	     -0.10000000	     -0.00000000	     -0.05000000	     -0.00000000	     -0.19440498	      1.90653843	    -22.98608694	    282.09750876	      3.87799171	    216.70569081	    -21.91520792	    108.62591415	    112.63284688	     60.50114881	     -0.00617542	      0.00022314	     -0.46457442	     -0.00205672	   -220.36219907	   -120.44611206	      0.05573670	      0.00000047	     -0.02550852	     -0.00000017	   -143.19044004	   1084.87268652	      0.00000000	     -0.00000000	     -0.00000000	     -0.00000000	     -0.01422342	      0.09876644	     -0.01422342	      0.17531686	     -0.01422342	      0.05785440	     -0.01422342	      0.09459608	     -0.01422342	      0.09701886	     -0.01422342	      0.04948512	     -0.01422342	      0.13788747
